<svg width="200" height="100" viewBox="0 0 200 100" fill="none" xmlns="http://www.w3.org/2000/svg">
<path d="M131.2 57.2V48.8C131.2 48.1373 131.737 47.6 132.4 47.6H134.8C135.463 47.6 136 48.1373 136 48.8V56C136 56.6627 136.537 57.2 137.2 57.2H154C154.663 57.2 155.2 56.6627 155.2 56V44C155.2 43.3373 154.663 42.8 154 42.8H108.39C107.726 42.8 107.189 43.3385 107.19 44.002L107.194 46.402C107.195 47.064 107.732 47.6 108.394 47.6H125.2C125.863 47.6 126.4 48.1373 126.4 48.8V51.2C126.4 51.8627 125.863 52.4 125.2 52.4H108.394C107.732 52.4 107.195 52.936 107.194 53.598L107.19 55.998C107.189 56.6615 107.726 57.2 108.39 57.2H125.2C125.863 57.2 126.4 57.7373 126.4 58.4V60.8C126.4 61.4627 125.863 62 125.2 62H86.5941C85.3609 62 84.1765 61.5254 83.2853 60.6773L83.2 60.5941L76.3514 53.7456C74.0836 51.4777 75.6898 47.6 78.897 47.6H91.594C92.2575 47.6 92.7951 47.0615 92.794 46.398L92.79 43.998C92.7889 43.336 92.252 42.8 91.59 42.8H72.4C71.7373 42.8 71.2 43.3373 71.2 44V46.4C71.2 47.0627 70.6627 47.6 70 47.6H67.6C66.9373 47.6 66.4 47.0627 66.4 46.4V44C66.4 43.3373 65.8627 42.8 65.2 42.8H46C45.3373 42.8 44.8 43.3373 44.8 44V56C44.8 56.6627 45.3373 57.2 46 57.2H65.2C65.8627 57.2 66.4 56.6627 66.4 56V53.6C66.4 52.9373 66.9373 52.4 67.6 52.4H70C70.6627 52.4 71.2 52.9373 71.2 53.6V57.2C71.2 59.851 69.051 62 66.4 62H44.8C42.149 62 40 59.851 40 57.2V42.8C40 40.149 42.149 38 44.8 38H92.788C95.4358 38 97.5836 40.1442 97.588 42.7921L97.596 47.5921L97.5947 47.716C97.5331 50.3129 95.4086 52.4 92.796 52.4H81.7941L86.2427 56.8485C86.4677 57.0736 86.7729 57.2 87.0912 57.2H101.19C101.852 57.2 102.389 56.664 102.39 56.002L102.4 50.004L102.388 42.8079C102.384 40.1539 104.534 38 107.188 38H155.2C157.851 38 160 40.149 160 42.8V57.2C160 59.851 157.851 62 155.2 62H136C133.349 62 131.2 59.851 131.2 57.2Z" fill="white"/>
</svg>
