<svg width="200" height="100" viewBox="0 0 200 100" fill="none" xmlns="http://www.w3.org/2000/svg">
<path d="M45.4633 41.242H43.8828C43.1211 41.242 42.5889 41.4246 42.2864 41.7893C41.9839 42.1428 41.8325 42.3711 41.8325 43.0212V43.2833H45.581V48.7001H41.8325V63H36.6557V48.7001H34V43.2833H36.6557V43.0212C36.6557 41.6413 36.9192 40.6492 37.4459 39.7369C37.9837 38.8247 38.712 38.1406 39.6308 37.6845C40.5608 37.2283 41.6143 37 42.7908 37H45.4633V41.242Z" fill="white"/>
<path d="M52.1207 63H46.9271V37H52.1207V63Z" fill="white"/>
<path d="M79.3694 56.7396H79.5375L82.5799 43.3293H87.7399L90.8159 56.6541H90.984L93.8415 43.3293H99.1023L93.9928 63H88.4965L85.2692 50.4278H85.0338L81.8065 63H76.2934L71.1838 43.3293H76.4615L79.3694 56.7396Z" fill="white"/>
<path d="M119.202 40.2843V43.3293H123.236V45.8261H119.202V57.287C119.202 58.2789 119.403 59.009 119.807 59.4765C120.21 59.9327 120.849 60.161 121.724 60.161C121.914 60.161 122.11 60.1497 122.312 60.127C122.525 60.1042 122.754 60.0695 123 60.0239L123.606 62.6578C123.337 62.7605 123.006 62.8408 122.614 62.8979C122.233 62.9662 121.847 63 121.454 63C119.942 63 118.709 62.5443 117.756 61.632C116.815 60.7197 116.345 59.5332 116.345 58.0736V45.8261H113.521V43.3293H116.345V40.2843H119.202Z" fill="white"/>
<path d="M145.156 40.2843V43.3293H149.19V45.8261H145.156V57.287C145.156 58.279 145.358 59.009 145.762 59.4765C146.164 59.9326 146.803 60.1609 147.678 60.161C147.868 60.161 148.064 60.1497 148.266 60.127C148.479 60.1042 148.709 60.0695 148.954 60.0239L149.561 62.6578C149.292 62.7604 148.961 62.8408 148.569 62.8979C148.188 62.9663 147.802 63 147.409 63C145.896 63 144.664 62.5442 143.711 61.632C142.77 60.7196 142.299 59.5333 142.299 58.0736V45.8261H139.476V43.3293H142.299V40.2843H145.156Z" fill="white"/>
<path fill-rule="evenodd" clip-rule="evenodd" d="M131.775 43.0892C132.381 43.0892 133.076 43.1636 133.86 43.3119C134.645 43.4487 135.407 43.7454 136.146 44.2015C136.897 44.6462 137.513 45.3251 137.995 46.2374C138.487 47.1382 138.734 48.3465 138.734 49.8629V62.4526H135.843V59.8528H135.709C135.519 60.2633 135.194 60.7086 134.735 61.1877C134.276 61.6552 133.664 62.0599 132.903 62.402C132.152 62.7327 131.227 62.8979 130.129 62.8979C128.941 62.8979 127.859 62.6696 126.884 62.2134C125.91 61.7459 125.137 61.073 124.565 60.195C123.994 59.3171 123.709 58.2566 123.708 57.0138C123.708 55.9193 123.921 55.0352 124.346 54.3625C124.772 53.6782 125.339 53.1421 126.045 52.7544C126.762 52.3553 127.546 52.0586 128.398 51.8648C129.26 51.6709 130.129 51.517 131.003 51.4029C132.146 51.2548 133.07 51.1405 133.776 51.0607C134.493 50.9809 135.015 50.8442 135.34 50.6504C135.676 50.4565 135.843 50.1254 135.843 49.6578V49.5557C135.843 48.3355 135.513 47.3885 134.852 46.7157C134.203 46.0315 133.211 45.69 131.877 45.69C130.51 45.69 129.434 45.9978 128.65 46.6136C127.866 47.218 127.316 47.8675 127.002 48.563L124.246 47.5713C124.739 46.4081 125.395 45.5019 126.213 44.8519C127.042 44.2019 127.938 43.7453 128.902 43.483C129.877 43.2208 130.834 43.0893 131.775 43.0892ZM135.843 52.8399C135.72 52.9881 135.451 53.1248 135.036 53.2502C134.634 53.3643 134.163 53.4672 133.625 53.5584C133.099 53.6497 132.583 53.7291 132.079 53.7976C131.574 53.8546 131.172 53.9005 130.868 53.9347C130.118 54.0374 129.417 54.2025 128.768 54.4305C128.118 54.6472 127.59 54.9724 127.187 55.4057C126.795 55.839 126.599 56.4324 126.599 57.1849C126.599 58.1997 126.969 58.9696 127.708 59.494C128.459 60.0072 129.412 60.2631 130.566 60.2631C131.709 60.2631 132.672 60.0357 133.458 59.5796C134.242 59.1235 134.834 58.536 135.238 57.8178C135.642 57.0881 135.843 56.3294 135.843 55.5428V52.8399Z" fill="white"/>
<path d="M106.729 43.0892C108.6 43.0893 110.063 43.5114 111.116 44.3551C112.18 45.1875 112.937 46.2825 113.385 47.6394L110.796 48.3579C110.55 47.708 110.124 47.0921 109.519 46.5106C108.926 45.9176 107.995 45.621 106.729 45.621C105.586 45.621 104.634 45.8951 103.872 46.4425C103.11 46.9784 102.729 47.6512 102.729 48.4609C102.729 49.1906 102.987 49.7719 103.502 50.2052C104.029 50.6385 104.847 50.9922 105.956 51.2659L108.746 51.9503C110.416 52.3609 111.66 52.9938 112.478 53.8491C113.307 54.7043 113.721 55.7933 113.721 57.1159C113.721 58.2105 113.413 59.1914 112.797 60.058C112.181 60.9246 111.323 61.6096 110.225 62.1113C109.127 62.6129 107.849 62.8638 106.393 62.8638C104.477 62.8638 102.892 62.4357 101.637 61.5805C100.393 60.7252 99.8112 59.4878 99.475 57.8684L101.989 57.1849C102.247 58.2111 102.74 58.9809 103.468 59.494C104.208 60.0072 105.172 60.2631 106.359 60.2631C107.693 60.2631 108.758 59.9726 109.553 59.391C110.36 58.798 110.763 58.0965 110.763 57.287C110.763 55.9414 109.833 55.0403 107.973 54.5842L104.846 53.8316C103.121 53.4097 101.855 52.7654 101.048 51.8988C100.241 51.0322 99.8375 49.9433 99.8375 48.632C99.8375 47.5487 100.135 46.5905 100.729 45.758C101.334 44.9256 102.157 44.2753 103.199 43.8077C104.241 43.3288 105.418 43.0892 106.729 43.0892Z" fill="white"/>
<path fill-rule="evenodd" clip-rule="evenodd" d="M157.865 43.0892C158.84 43.0893 159.81 43.2553 160.773 43.586C161.737 43.9167 162.611 44.452 163.395 45.1932C164.191 45.9344 164.823 46.9159 165.294 48.1362C165.764 49.3563 166 50.856 166 52.6348V53.9006H152.359C152.401 55.1713 152.646 56.2603 153.092 57.1674C153.584 58.1709 154.273 58.9355 155.159 59.46C156.043 59.9731 157.069 60.229 158.235 60.2291C158.986 60.2291 159.669 60.121 160.285 59.9043C160.902 59.6763 161.434 59.3398 161.882 58.8951C162.33 58.4391 162.672 57.8802 162.907 57.219L165.697 58.0396C165.406 58.9975 164.913 59.8414 164.218 60.5713C163.535 61.2897 162.683 61.8544 161.663 62.2649C160.643 62.664 159.5 62.8638 158.235 62.8638C156.431 62.8638 154.867 62.453 153.545 61.632C152.234 60.811 151.226 59.6649 150.52 58.1941C149.814 56.7116 149.461 54.9951 149.461 53.0451C149.461 51.0837 149.808 49.3559 150.502 47.862C151.198 46.3681 152.173 45.199 153.428 44.3551C154.694 43.5114 156.173 43.0892 157.865 43.0892ZM157.865 45.724C156.71 45.724 155.719 46.0145 154.89 46.5961C154.072 47.1663 153.445 47.9134 153.008 48.8372C152.632 49.6305 152.418 50.4747 152.365 51.3689H163.07C162.994 50.4751 162.812 49.6593 162.521 48.9227C162.129 47.9306 161.54 47.1489 160.756 46.5787C159.982 46.0087 159.019 45.724 157.865 45.724Z" fill="white"/>
<path fill-rule="evenodd" clip-rule="evenodd" d="M62.9133 43.0892C64.818 43.0893 66.4598 43.5061 67.8379 44.3385C69.2273 45.1596 70.2921 46.3116 71.0316 47.7939C71.7822 49.2649 72.1572 50.993 72.1572 52.977C72.1571 54.9382 71.7823 56.6602 71.0316 58.1426C70.292 59.6135 69.2274 60.7655 67.8379 61.598C66.4598 62.4189 64.818 62.8288 62.9133 62.8289C61.0196 62.8289 59.3773 62.419 57.9878 61.598C56.6096 60.7655 55.5448 59.6136 54.7941 58.1426C54.0546 56.6602 53.6853 54.9382 53.6853 52.977C53.6853 50.993 54.0546 49.2649 54.7941 47.7939C55.5448 46.3116 56.6097 45.1596 57.9878 44.3385C59.3773 43.5061 61.0196 43.0892 62.9133 43.0892ZM62.946 47.2291C62.0722 47.2291 61.3381 47.4748 60.7443 47.965C60.1618 48.4553 59.7194 49.1283 59.417 49.9834C59.1257 50.8386 58.9798 51.8247 58.9798 52.942C58.9798 54.0482 59.1256 55.0349 59.417 55.9016C59.7194 56.7681 60.1617 57.4523 60.7443 57.954C61.3381 58.4443 62.0722 58.6899 62.946 58.69C63.8089 58.69 64.5324 58.4443 65.115 57.954C65.6975 57.4523 66.1342 56.7681 66.4255 55.9016C66.7281 55.0349 66.8795 54.0482 66.8795 52.942C66.8795 51.8247 66.728 50.8386 66.4255 49.9834C66.1342 49.1284 65.6975 48.4553 65.115 47.965C64.5324 47.4747 63.8089 47.2291 62.946 47.2291Z" fill="white"/>
</svg>
