<svg width="1000" height="1000" viewBox="0 0 1000 1000" fill="none" xmlns="http://www.w3.org/2000/svg">
<rect width="1000" height="1000" fill="#DBDBDB"/>
<path fill-rule="evenodd" clip-rule="evenodd" d="M600 440C600 428.954 591.046 420 580 420H420C408.954 420 400 428.954 400 440V560C400 571.046 408.954 580 420 580H580C591.046 580 600 571.046 600 560V440ZM475 450C483.284 450 490 456.716 490 465C490 473.284 483.284 480 475 480C466.716 480 460 473.284 460 465C460 456.716 466.716 450 475 450ZM565 550C567.761 550 570 547.762 570 545V541.6C569.993 540.519 569.643 539.469 569 538.6L526.5 481.9C525.533 480.677 524.059 479.964 522.5 479.964C520.941 479.964 519.467 480.677 518.5 481.9L489.7 519.1C488.746 520.347 487.27 521.085 485.7 521.1C484.227 521.102 482.832 520.441 481.9 519.3L467.4 501.8C466.437 500.644 465.005 499.983 463.5 500C462.127 500.144 460.868 500.827 460 501.9L431.1 538.6C430.387 539.437 429.996 540.501 430 541.6V545C430 547.762 432.239 550 435 550H565Z" fill="black" fill-opacity="0.15"/>
<circle cx="579" cy="421" r="41" fill="#DBDBDB"/>
<path d="M579.227 438.477C577.432 438.466 575.699 438.165 574.028 437.574C572.369 436.983 570.881 436.023 569.562 434.693C568.244 433.364 567.199 431.602 566.426 429.409C565.665 427.216 565.284 424.523 565.284 421.33C565.295 418.398 565.631 415.778 566.29 413.472C566.96 411.153 567.915 409.187 569.153 407.574C570.403 405.96 571.898 404.733 573.636 403.892C575.375 403.04 577.324 402.614 579.483 402.614C581.813 402.614 583.869 403.068 585.653 403.977C587.438 404.875 588.869 406.097 589.949 407.642C591.04 409.188 591.699 410.92 591.926 412.841H584.648C584.364 411.625 583.767 410.67 582.858 409.977C581.949 409.284 580.824 408.938 579.483 408.938C577.21 408.938 575.483 409.926 574.301 411.903C573.131 413.881 572.534 416.568 572.511 419.966H572.75C573.273 418.932 573.977 418.051 574.864 417.324C575.761 416.585 576.778 416.023 577.915 415.636C579.062 415.239 580.273 415.04 581.545 415.04C583.614 415.04 585.455 415.528 587.068 416.506C588.682 417.472 589.955 418.801 590.886 420.494C591.818 422.187 592.284 424.125 592.284 426.307C592.284 428.67 591.733 430.773 590.631 432.614C589.54 434.455 588.011 435.898 586.045 436.943C584.091 437.977 581.818 438.489 579.227 438.477ZM579.193 432.682C580.33 432.682 581.347 432.409 582.244 431.864C583.142 431.318 583.847 430.58 584.358 429.648C584.869 428.716 585.125 427.67 585.125 426.511C585.125 425.352 584.869 424.312 584.358 423.392C583.858 422.472 583.165 421.739 582.278 421.193C581.392 420.648 580.381 420.375 579.244 420.375C578.392 420.375 577.602 420.534 576.875 420.852C576.159 421.17 575.528 421.614 574.983 422.182C574.449 422.75 574.028 423.409 573.722 424.159C573.415 424.898 573.261 425.687 573.261 426.528C573.261 427.653 573.517 428.682 574.028 429.614C574.551 430.545 575.256 431.29 576.142 431.847C577.04 432.403 578.057 432.682 579.193 432.682Z" fill="#BABABA"/>
</svg>
